<svg width="87" height="109" viewBox="0 0 87 109" fill="none" xmlns="http://www.w3.org/2000/svg">
<path d="M64.1068 4.53439V82.84H56.349V23.367C54.9344 24.9061 52.8742 25.8783 50.6114 25.8783C46.2883 25.8783 42.7727 22.3755 42.7727 18.0417C42.7727 13.7078 46.2883 10.185 50.6114 10.185C52.8742 10.185 54.9353 11.1572 56.349 12.7164V4.53439H64.1068Z" fill="white"/>
<path d="M28.4681 56.5361C28.3263 56.496 28.1854 56.496 28.0236 56.496H28.4272C28.4281 56.4951 28.4481 56.5361 28.4681 56.5361Z" fill="white"/>
<path d="M54.1471 27.6188C53.2379 26.971 51.9851 26.5663 50.6114 26.5663C47.8639 26.5663 45.6211 28.1656 45.6211 30.1703V33.7542L27.8626 51.5744C27.2763 52.1412 26.9935 52.8903 26.9935 53.6803C26.9935 54.5715 27.3572 55.4827 28.0845 56.2117C28.1854 56.3129 28.3063 56.414 28.4281 56.4951C28.4281 56.4951 28.4481 56.5352 28.4682 56.5352C28.3263 56.4951 28.1854 56.4951 28.0236 56.4951C27.7809 56.4951 27.559 56.5152 27.3372 56.5562C25.7616 56.7785 24.5897 57.8319 24.5897 59.0675V80.2484C24.5897 81.6654 26.1252 82.84 28.0245 82.84C29.9237 82.84 31.4592 81.6654 31.4592 80.2484V63.3595H50.6723L51.2378 63.2985C53.7025 63.0962 55.6017 61.5771 55.6017 59.7547V30.1703C55.6017 29.1579 55.0353 28.2667 54.1471 27.6188ZM45.6211 56.4951H32.6302C32.6703 56.4751 32.6911 56.455 32.7111 56.4341L45.6211 43.4744V56.4951Z" fill="white"/>
</svg>
